<svg width="302" height="51" viewBox="0 0 302 51" fill="none" xmlns="http://www.w3.org/2000/svg">
<path d="M21.816 24.216L20.9278 24.6754L21.8425 26.4441L22.7149 24.6541L21.816 24.216ZM10.968 3.24L11.8562 2.78063L11.5767 2.24H10.968V3.24ZM2.424 3.24V2.24H0.769468L1.53863 3.70488L2.424 3.24ZM21.528 39.624L20.6426 40.0889L21.5498 41.8165L22.4224 40.0712L21.528 39.624ZM39.72 3.24L40.6144 3.68721L41.338 2.24H39.72V3.24ZM32.04 3.24V2.24H31.415L31.1411 2.80186L32.04 3.24ZM22.7042 23.7566L11.8562 2.78063L10.0798 3.69936L20.9278 24.6754L22.7042 23.7566ZM10.968 2.24H2.424V4.24H10.968V2.24ZM1.53863 3.70488L20.6426 40.0889L22.4134 39.1591L3.30937 2.77512L1.53863 3.70488ZM22.4224 40.0712L40.6144 3.68721L38.8256 2.79278L20.6336 39.1768L22.4224 40.0712ZM39.72 2.24H32.04V4.24H39.72V2.24ZM31.1411 2.80186L20.9171 23.7779L22.7149 24.6541L32.9389 3.67814L31.1411 2.80186ZM64.0684 39V40H65.0684V39H64.0684ZM64.0684 32.28H65.0684V31.28H64.0684V32.28ZM49.3324 32.28H48.3324V33.28H49.3324V32.28ZM49.3324 23.352V22.352H48.3324V23.352H49.3324ZM62.7724 23.352V24.352H63.7724V23.352H62.7724ZM62.7724 16.632H63.7724V15.632H62.7724V16.632ZM49.3324 16.632H48.3324V17.632H49.3324V16.632ZM49.3324 9.96V8.96H48.3324V9.96H49.3324ZM60.9004 9.96V10.96H61.9004V9.96H60.9004ZM60.9004 3.24H61.9004V2.24H60.9004V3.24ZM41.8924 3.24V2.24H40.8924V3.24H41.8924ZM41.8924 39H40.8924V40H41.8924V39ZM65.0684 39V32.28H63.0684V39H65.0684ZM64.0684 31.28H49.3324V33.28H64.0684V31.28ZM50.3324 32.28V23.352H48.3324V32.28H50.3324ZM49.3324 24.352H62.7724V22.352H49.3324V24.352ZM63.7724 23.352V16.632H61.7724V23.352H63.7724ZM62.7724 15.632H49.3324V17.632H62.7724V15.632ZM50.3324 16.632V9.96H48.3324V16.632H50.3324ZM49.3324 10.96H60.9004V8.96H49.3324V10.96ZM61.9004 9.96V3.24H59.9004V9.96H61.9004ZM60.9004 2.24H41.8924V4.24H60.9004V2.24ZM40.8924 3.24V39H42.8924V3.24H40.8924ZM41.8924 40H64.0684V38H41.8924V40ZM113.947 39V40H114.947V39H113.947ZM113.947 9.96V8.96H112.947V9.96H113.947ZM123.355 9.96V10.96H124.355V9.96H123.355ZM123.355 3.24H124.355V2.24H123.355V3.24ZM97.6751 3.24V2.24H96.6751V3.24H97.6751ZM97.6751 9.96H96.6751V10.96H97.6751V9.96ZM106.507 9.96H107.507V8.96H106.507V9.96ZM106.507 39H105.507V40H106.507V39ZM114.947 39V9.96H112.947V39H114.947ZM113.947 10.96H123.355V8.96H113.947V10.96ZM124.355 9.96V3.24H122.355V9.96H124.355ZM123.355 2.24H97.6751V4.24H123.355V2.24ZM96.6751 3.24V9.96H98.6751V3.24H96.6751ZM97.6751 10.96H106.507V8.96H97.6751V10.96ZM105.507 9.96V39H107.507V9.96H105.507ZM106.507 40H113.947V38H106.507V40ZM142.711 40.624C153.491 40.624 162.191 31.8689 162.191 21.096H160.191C160.191 30.7711 152.379 38.624 142.711 38.624V40.624ZM162.191 21.096C162.191 10.318 153.486 1.616 142.663 1.616V3.616C152.385 3.616 160.191 11.426 160.191 21.096H162.191ZM142.663 1.616C131.887 1.616 123.183 10.3197 123.183 21.096H125.183C125.183 11.4243 132.991 3.616 142.663 3.616V1.616ZM123.183 21.096C123.183 31.8706 131.885 40.624 142.711 40.624V38.624C132.993 38.624 125.183 30.7694 125.183 21.096H123.183ZM142.663 10.72C148.117 10.72 152.559 15.3177 152.559 21.096H154.559C154.559 14.2983 149.305 8.72 142.663 8.72V10.72ZM152.559 21.096C152.559 26.9706 148.165 31.472 142.711 31.472V33.472C149.353 33.472 154.559 27.9894 154.559 21.096H152.559ZM142.711 31.472C137.161 31.472 132.815 26.9706 132.815 21.096H130.815C130.815 27.9894 135.973 33.472 142.711 33.472V31.472ZM132.815 21.096C132.815 15.3088 137.17 10.72 142.663 10.72V8.72C135.965 8.72 130.815 14.3072 130.815 21.096H132.815ZM177.683 32.808L178.41 32.1209L178.114 31.808H177.683V32.808ZM183.539 39L182.813 39.6871L183.109 40H183.539V39ZM193.427 39V40H195.733L194.157 38.3166L193.427 39ZM185.699 30.744L185.28 29.836L184.023 30.4164L184.969 31.4274L185.699 30.744ZM166.499 3.24V2.24H165.499V3.24H166.499ZM166.499 39H165.499V40H166.499V39ZM173.939 39V40H174.939V39H173.939ZM173.939 32.808V31.808H172.939V32.808H173.939ZM173.939 26.088H172.939V27.088H173.939V26.088ZM173.939 9.96V8.96H172.939V9.96H173.939ZM176.957 33.4951L182.813 39.6871L184.266 38.3129L178.41 32.1209L176.957 33.4951ZM183.539 40H193.427V38H183.539V40ZM194.157 38.3166L186.429 30.0606L184.969 31.4274L192.697 39.6834L194.157 38.3166ZM186.118 31.652C191.491 29.1723 194.763 24.096 194.763 17.304H192.763C192.763 23.376 189.892 27.7077 185.28 29.836L186.118 31.652ZM194.763 17.304C194.763 8.93485 187.842 2.24 178.931 2.24V4.24C186.821 4.24 192.763 10.1211 192.763 17.304H194.763ZM178.931 2.24H166.499V4.24H178.931V2.24ZM165.499 3.24V39H167.499V3.24H165.499ZM166.499 40H173.939V38H166.499V40ZM174.939 39V32.808H172.939V39H174.939ZM173.939 33.808H177.683V31.808H173.939V33.808ZM174.939 26.088V9.96H172.939V26.088H174.939ZM173.939 10.96H178.451V8.96H173.939V10.96ZM178.451 10.96C180.801 10.96 182.474 11.7566 183.568 12.9559C184.675 14.1695 185.275 15.8916 185.275 17.88H187.275C187.275 15.5004 186.555 13.2625 185.046 11.6081C183.524 9.93941 181.286 8.96 178.451 8.96V10.96ZM185.275 17.88C185.275 20.1784 184.593 21.9555 183.414 23.1549C182.238 24.3513 180.454 25.088 178.019 25.088V27.088C180.865 27.088 183.209 26.2167 184.84 24.5571C186.469 22.9005 187.275 20.5736 187.275 17.88H185.275ZM178.019 25.088H173.939V27.088H178.019V25.088ZM206.33 39V40H207.33V39H206.33ZM206.33 32.808V31.808H205.33V32.808H206.33ZM198.89 3.24V2.24H197.89V3.24H198.89ZM198.89 39H197.89V40H198.89V39ZM206.33 26.088H205.33V27.088H206.33V26.088ZM206.33 9.96V8.96H205.33V9.96H206.33ZM207.33 39V32.808H205.33V39H207.33ZM206.33 33.808H210.602V31.808H206.33V33.808ZM210.602 33.808C215.559 33.808 219.716 32.1423 222.634 29.198C225.551 26.2552 227.154 22.1135 227.154 17.304H225.154C225.154 21.6625 223.709 25.2728 221.214 27.79C218.72 30.3057 215.1 31.808 210.602 31.808V33.808ZM227.154 17.304C227.154 8.93485 220.232 2.24 211.322 2.24V4.24C219.211 4.24 225.154 10.1211 225.154 17.304H227.154ZM211.322 2.24H198.89V4.24H211.322V2.24ZM197.89 3.24V39H199.89V3.24H197.89ZM198.89 40H206.33V38H198.89V40ZM207.33 26.088V9.96H205.33V26.088H207.33ZM206.33 10.96H210.842V8.96H206.33V10.96ZM210.842 10.96C213.191 10.96 214.865 11.7566 215.959 12.9559C217.066 14.1695 217.666 15.8916 217.666 17.88H219.666C219.666 15.5004 218.946 13.2625 217.437 11.6081C215.915 9.93941 213.676 8.96 210.842 8.96V10.96ZM217.666 17.88C217.666 20.1784 216.984 21.9555 215.805 23.1549C214.629 24.3513 212.844 25.088 210.41 25.088V27.088C213.256 27.088 215.599 26.2167 217.231 24.5571C218.86 22.9005 219.666 20.5736 219.666 17.88H217.666ZM210.41 25.088H206.33V27.088H210.41V25.088ZM242.464 32.808L243.191 32.1209L242.895 31.808H242.464V32.808ZM248.32 39L247.594 39.6871L247.89 40H248.32V39ZM258.208 39V40H260.514L258.939 38.3166L258.208 39ZM250.48 30.744L250.061 29.836L248.804 30.4164L249.75 31.4274L250.48 30.744ZM231.281 3.24V2.24H230.281V3.24H231.281ZM231.281 39H230.281V40H231.281V39ZM238.721 39V40H239.721V39H238.721ZM238.721 32.808V31.808H237.721V32.808H238.721ZM238.721 26.088H237.721V27.088H238.721V26.088ZM238.721 9.96V8.96H237.721V9.96H238.721ZM241.738 33.4951L247.594 39.6871L249.047 38.3129L243.191 32.1209L241.738 33.4951ZM248.32 40H258.208V38H248.32V40ZM258.939 38.3166L251.211 30.0606L249.75 31.4274L257.478 39.6834L258.939 38.3166ZM250.9 31.652C256.272 29.1723 259.544 24.096 259.544 17.304H257.544C257.544 23.376 254.673 27.7077 250.061 29.836L250.9 31.652ZM259.544 17.304C259.544 8.93485 252.623 2.24 243.712 2.24V4.24C251.602 4.24 257.544 10.1211 257.544 17.304H259.544ZM243.712 2.24H231.281V4.24H243.712V2.24ZM230.281 3.24V39H232.281V3.24H230.281ZM231.281 40H238.721V38H231.281V40ZM239.721 39V32.808H237.721V39H239.721ZM238.721 33.808H242.464V31.808H238.721V33.808ZM239.721 26.088V9.96H237.721V26.088H239.721ZM238.721 10.96H243.232V8.96H238.721V10.96ZM243.232 10.96C245.582 10.96 247.256 11.7566 248.35 12.9559C249.457 14.1695 250.057 15.8916 250.057 17.88H252.057C252.057 15.5004 251.336 13.2625 249.827 11.6081C248.305 9.93941 246.067 8.96 243.232 8.96V10.96ZM250.057 17.88C250.057 20.1784 249.375 21.9555 248.195 23.1549C247.019 24.3513 245.235 25.088 242.8 25.088V27.088C245.646 27.088 247.99 26.2167 249.622 24.5571C251.25 22.9005 252.057 20.5736 252.057 17.88H250.057ZM242.8 25.088H238.721V27.088H242.8V25.088ZM280.711 40.624C291.491 40.624 300.191 31.8689 300.191 21.096H298.191C298.191 30.7711 290.379 38.624 280.711 38.624V40.624ZM300.191 21.096C300.191 10.318 291.486 1.616 280.663 1.616V3.616C290.385 3.616 298.191 11.426 298.191 21.096H300.191ZM280.663 1.616C269.887 1.616 261.183 10.3197 261.183 21.096H263.183C263.183 11.4243 270.991 3.616 280.663 3.616V1.616ZM261.183 21.096C261.183 31.8706 269.885 40.624 280.711 40.624V38.624C270.993 38.624 263.183 30.7694 263.183 21.096H261.183ZM280.663 10.72C286.117 10.72 290.559 15.3177 290.559 21.096H292.559C292.559 14.2983 287.305 8.72 280.663 8.72V10.72ZM290.559 21.096C290.559 26.9706 286.165 31.472 280.711 31.472V33.472C287.353 33.472 292.559 27.9894 292.559 21.096H290.559ZM280.711 31.472C275.161 31.472 270.815 26.9706 270.815 21.096H268.815C268.815 27.9894 273.973 33.472 280.711 33.472V31.472ZM270.815 21.096C270.815 15.3088 275.17 10.72 280.663 10.72V8.72C273.965 8.72 268.815 14.3072 268.815 21.096H270.815Z" fill="#002253"/>
<path d="M92.8869 8.61213C94.8616 6.64198 94.8616 3.44775 92.8869 1.47761C90.9121 -0.492536 87.7105 -0.492536 85.7357 1.47761L67 20.1698L67.647 20.8153L67.6321 20.8302L86.3678 39.5224C88.3426 41.4925 91.5442 41.4925 93.519 39.5224C95.4937 37.5522 95.4937 34.358 93.519 32.3879L81.2874 20.1847L92.8869 8.61213Z" fill="#002253"/>
</svg>
